<mxfile host="app.diagrams.net" agent="Mozilla/5.0 (Windows NT 10.0; Win64; x64) AppleWebKit/537.36 (KHTML, like Gecko) Chrome/136.0.0.0 Safari/537.36 Edg/136.0.0.0" version="26.2.14">
  <diagram name="Page-1" id="4TzWTeuGmfHHLc7CxTQy">
    <mxGraphModel dx="1418" dy="834" grid="1" gridSize="10" guides="1" tooltips="1" connect="1" arrows="1" fold="1" page="1" pageScale="1" pageWidth="827" pageHeight="1169" math="0" shadow="0">
      <root>
        <mxCell id="0" />
        <mxCell id="1" parent="0" />
        <mxCell id="0yZVs_pOCIj4PwXCodFh-7" style="edgeStyle=orthogonalEdgeStyle;rounded=0;orthogonalLoop=1;jettySize=auto;html=1;exitX=0.5;exitY=1;exitDx=0;exitDy=0;entryX=0.5;entryY=0;entryDx=0;entryDy=0;" edge="1" parent="1" source="0yZVs_pOCIj4PwXCodFh-1" target="0yZVs_pOCIj4PwXCodFh-2">
          <mxGeometry relative="1" as="geometry" />
        </mxCell>
        <mxCell id="0yZVs_pOCIj4PwXCodFh-1" value="Start" style="ellipse;whiteSpace=wrap;html=1;" vertex="1" parent="1">
          <mxGeometry x="354" width="120" height="80" as="geometry" />
        </mxCell>
        <mxCell id="0yZVs_pOCIj4PwXCodFh-8" style="edgeStyle=orthogonalEdgeStyle;rounded=0;orthogonalLoop=1;jettySize=auto;html=1;exitX=0.5;exitY=1;exitDx=0;exitDy=0;entryX=0.5;entryY=0;entryDx=0;entryDy=0;" edge="1" parent="1" source="0yZVs_pOCIj4PwXCodFh-2" target="0yZVs_pOCIj4PwXCodFh-3">
          <mxGeometry relative="1" as="geometry" />
        </mxCell>
        <mxCell id="0yZVs_pOCIj4PwXCodFh-2" value="Initialize UDP Socket&lt;div&gt;(timeout 1 sec)&lt;/div&gt;" style="rounded=0;whiteSpace=wrap;html=1;" vertex="1" parent="1">
          <mxGeometry x="354" y="100" width="120" height="60" as="geometry" />
        </mxCell>
        <mxCell id="0yZVs_pOCIj4PwXCodFh-45" value="" style="rounded=0;whiteSpace=wrap;html=1;" vertex="1" parent="1">
          <mxGeometry x="130" y="310" width="190" height="300" as="geometry" />
        </mxCell>
        <mxCell id="0yZVs_pOCIj4PwXCodFh-9" style="edgeStyle=orthogonalEdgeStyle;rounded=0;orthogonalLoop=1;jettySize=auto;html=1;exitX=0.5;exitY=1;exitDx=0;exitDy=0;entryX=0.5;entryY=0;entryDx=0;entryDy=0;" edge="1" parent="1" source="0yZVs_pOCIj4PwXCodFh-3" target="0yZVs_pOCIj4PwXCodFh-4">
          <mxGeometry relative="1" as="geometry" />
        </mxCell>
        <mxCell id="0yZVs_pOCIj4PwXCodFh-3" value="Send Initial Command &quot;pon=1&quot;" style="rounded=0;whiteSpace=wrap;html=1;" vertex="1" parent="1">
          <mxGeometry x="354" y="180" width="120" height="60" as="geometry" />
        </mxCell>
        <mxCell id="0yZVs_pOCIj4PwXCodFh-50" value="" style="rounded=0;whiteSpace=wrap;html=1;" vertex="1" parent="1">
          <mxGeometry x="480" y="310" width="277" height="345" as="geometry" />
        </mxCell>
        <mxCell id="0yZVs_pOCIj4PwXCodFh-60" style="edgeStyle=orthogonalEdgeStyle;rounded=0;orthogonalLoop=1;jettySize=auto;html=1;exitX=0.5;exitY=1;exitDx=0;exitDy=0;" edge="1" parent="1" source="0yZVs_pOCIj4PwXCodFh-4">
          <mxGeometry relative="1" as="geometry">
            <mxPoint x="414" y="340" as="targetPoint" />
          </mxGeometry>
        </mxCell>
        <mxCell id="0yZVs_pOCIj4PwXCodFh-4" value="Threads:&lt;br&gt;Monitoring&lt;br&gt;Input" style="rounded=0;whiteSpace=wrap;html=1;" vertex="1" parent="1">
          <mxGeometry x="354" y="260" width="120" height="60" as="geometry" />
        </mxCell>
        <mxCell id="0yZVs_pOCIj4PwXCodFh-48" style="edgeStyle=orthogonalEdgeStyle;rounded=0;orthogonalLoop=1;jettySize=auto;html=1;exitX=0.5;exitY=1;exitDx=0;exitDy=0;" edge="1" parent="1" source="0yZVs_pOCIj4PwXCodFh-6">
          <mxGeometry relative="1" as="geometry">
            <mxPoint x="225" y="350" as="targetPoint" />
            <Array as="points">
              <mxPoint x="225" y="560" />
              <mxPoint x="155" y="560" />
              <mxPoint x="155" y="350" />
            </Array>
          </mxGeometry>
        </mxCell>
        <mxCell id="0yZVs_pOCIj4PwXCodFh-6" value="Sends command to receive monitoring data" style="rounded=0;whiteSpace=wrap;html=1;" vertex="1" parent="1">
          <mxGeometry x="165" y="480" width="120" height="60" as="geometry" />
        </mxCell>
        <mxCell id="0yZVs_pOCIj4PwXCodFh-44" style="edgeStyle=orthogonalEdgeStyle;rounded=0;orthogonalLoop=1;jettySize=auto;html=1;exitX=0.5;exitY=1;exitDx=0;exitDy=0;entryX=0.5;entryY=0;entryDx=0;entryDy=0;" edge="1" parent="1" source="0yZVs_pOCIj4PwXCodFh-13" target="0yZVs_pOCIj4PwXCodFh-33">
          <mxGeometry relative="1" as="geometry">
            <mxPoint x="657" y="340" as="targetPoint" />
            <Array as="points">
              <mxPoint x="657" y="640" />
              <mxPoint x="737" y="640" />
              <mxPoint x="737" y="340" />
              <mxPoint x="657" y="340" />
            </Array>
          </mxGeometry>
        </mxCell>
        <mxCell id="0yZVs_pOCIj4PwXCodFh-13" value="Sends commands" style="rounded=0;whiteSpace=wrap;html=1;" vertex="1" parent="1">
          <mxGeometry x="597" y="560" width="120" height="60" as="geometry" />
        </mxCell>
        <mxCell id="0yZVs_pOCIj4PwXCodFh-17" style="edgeStyle=orthogonalEdgeStyle;rounded=0;orthogonalLoop=1;jettySize=auto;html=1;exitX=0.5;exitY=1;exitDx=0;exitDy=0;entryX=0.5;entryY=0;entryDx=0;entryDy=0;" edge="1" parent="1" source="0yZVs_pOCIj4PwXCodFh-16" target="0yZVs_pOCIj4PwXCodFh-6">
          <mxGeometry relative="1" as="geometry" />
        </mxCell>
        <mxCell id="0yZVs_pOCIj4PwXCodFh-16" value="1 sec&lt;div&gt;passed?&lt;/div&gt;" style="rhombus;whiteSpace=wrap;html=1;" vertex="1" parent="1">
          <mxGeometry x="185" y="380" width="80" height="80" as="geometry" />
        </mxCell>
        <mxCell id="0yZVs_pOCIj4PwXCodFh-32" style="edgeStyle=orthogonalEdgeStyle;rounded=0;orthogonalLoop=1;jettySize=auto;html=1;exitX=0.5;exitY=1;exitDx=0;exitDy=0;entryX=0.5;entryY=0;entryDx=0;entryDy=0;" edge="1" parent="1" source="0yZVs_pOCIj4PwXCodFh-21" target="0yZVs_pOCIj4PwXCodFh-31">
          <mxGeometry relative="1" as="geometry" />
        </mxCell>
        <mxCell id="0yZVs_pOCIj4PwXCodFh-21" value="Send shutdown command &quot;pon=0&quot;" style="rounded=0;whiteSpace=wrap;html=1;" vertex="1" parent="1">
          <mxGeometry x="354" y="510" width="120" height="60" as="geometry" />
        </mxCell>
        <mxCell id="0yZVs_pOCIj4PwXCodFh-41" style="edgeStyle=orthogonalEdgeStyle;rounded=0;orthogonalLoop=1;jettySize=auto;html=1;exitX=0.5;exitY=1;exitDx=0;exitDy=0;entryX=0.5;entryY=0;entryDx=0;entryDy=0;" edge="1" parent="1" source="0yZVs_pOCIj4PwXCodFh-22" target="0yZVs_pOCIj4PwXCodFh-13">
          <mxGeometry relative="1" as="geometry" />
        </mxCell>
        <mxCell id="0yZVs_pOCIj4PwXCodFh-63" style="edgeStyle=orthogonalEdgeStyle;rounded=0;orthogonalLoop=1;jettySize=auto;html=1;exitX=0;exitY=0.5;exitDx=0;exitDy=0;entryX=1;entryY=0.5;entryDx=0;entryDy=0;" edge="1" parent="1" source="0yZVs_pOCIj4PwXCodFh-22" target="0yZVs_pOCIj4PwXCodFh-62">
          <mxGeometry relative="1" as="geometry" />
        </mxCell>
        <mxCell id="0yZVs_pOCIj4PwXCodFh-22" value="exit&amp;nbsp;&lt;div&gt;r&lt;span style=&quot;background-color: transparent; color: light-dark(rgb(0, 0, 0), rgb(255, 255, 255));&quot;&gt;eceived?&lt;/span&gt;&lt;/div&gt;" style="rhombus;whiteSpace=wrap;html=1;" vertex="1" parent="1">
          <mxGeometry x="617" y="460" width="80" height="80" as="geometry" />
        </mxCell>
        <mxCell id="0yZVs_pOCIj4PwXCodFh-28" value="No" style="text;html=1;align=center;verticalAlign=middle;whiteSpace=wrap;rounded=0;" vertex="1" parent="1">
          <mxGeometry x="245" y="390" width="60" height="30" as="geometry" />
        </mxCell>
        <mxCell id="0yZVs_pOCIj4PwXCodFh-29" value="No" style="text;html=1;align=center;verticalAlign=middle;whiteSpace=wrap;rounded=0;" vertex="1" parent="1">
          <mxGeometry x="657" y="540" width="60" height="20" as="geometry" />
        </mxCell>
        <mxCell id="0yZVs_pOCIj4PwXCodFh-30" value="Yes" style="text;html=1;align=center;verticalAlign=middle;whiteSpace=wrap;rounded=0;" vertex="1" parent="1">
          <mxGeometry x="175" y="450" width="60" height="30" as="geometry" />
        </mxCell>
        <mxCell id="0yZVs_pOCIj4PwXCodFh-31" value="Closes socket, stops threads" style="rounded=0;whiteSpace=wrap;html=1;" vertex="1" parent="1">
          <mxGeometry x="354" y="600" width="120" height="60" as="geometry" />
        </mxCell>
        <mxCell id="0yZVs_pOCIj4PwXCodFh-37" style="edgeStyle=orthogonalEdgeStyle;rounded=0;orthogonalLoop=1;jettySize=auto;html=1;exitX=0;exitY=0.5;exitDx=0;exitDy=0;entryX=0.5;entryY=0;entryDx=0;entryDy=0;" edge="1" parent="1" source="0yZVs_pOCIj4PwXCodFh-33" target="0yZVs_pOCIj4PwXCodFh-33">
          <mxGeometry relative="1" as="geometry">
            <mxPoint x="567" y="340" as="targetPoint" />
            <Array as="points">
              <mxPoint x="597" y="400" />
              <mxPoint x="597" y="340" />
              <mxPoint x="657" y="340" />
            </Array>
          </mxGeometry>
        </mxCell>
        <mxCell id="0yZVs_pOCIj4PwXCodFh-39" style="edgeStyle=orthogonalEdgeStyle;rounded=0;orthogonalLoop=1;jettySize=auto;html=1;exitX=0.5;exitY=1;exitDx=0;exitDy=0;entryX=0.5;entryY=0;entryDx=0;entryDy=0;" edge="1" parent="1" source="0yZVs_pOCIj4PwXCodFh-33" target="0yZVs_pOCIj4PwXCodFh-22">
          <mxGeometry relative="1" as="geometry" />
        </mxCell>
        <mxCell id="0yZVs_pOCIj4PwXCodFh-33" value="input captured?" style="rhombus;whiteSpace=wrap;html=1;" vertex="1" parent="1">
          <mxGeometry x="617" y="360" width="80" height="80" as="geometry" />
        </mxCell>
        <mxCell id="0yZVs_pOCIj4PwXCodFh-36" value="Yes" style="text;html=1;align=center;verticalAlign=middle;whiteSpace=wrap;rounded=0;" vertex="1" parent="1">
          <mxGeometry x="657" y="430" width="60" height="30" as="geometry" />
        </mxCell>
        <mxCell id="0yZVs_pOCIj4PwXCodFh-38" value="No" style="text;html=1;align=center;verticalAlign=middle;whiteSpace=wrap;rounded=0;" vertex="1" parent="1">
          <mxGeometry x="577" y="370" width="60" height="30" as="geometry" />
        </mxCell>
        <mxCell id="0yZVs_pOCIj4PwXCodFh-47" style="edgeStyle=orthogonalEdgeStyle;rounded=0;orthogonalLoop=1;jettySize=auto;html=1;exitX=1;exitY=0.5;exitDx=0;exitDy=0;entryX=0.5;entryY=0;entryDx=0;entryDy=0;" edge="1" parent="1" source="0yZVs_pOCIj4PwXCodFh-16" target="0yZVs_pOCIj4PwXCodFh-16">
          <mxGeometry relative="1" as="geometry">
            <Array as="points">
              <mxPoint x="285" y="420" />
              <mxPoint x="285" y="350" />
              <mxPoint x="225" y="350" />
            </Array>
          </mxGeometry>
        </mxCell>
        <mxCell id="0yZVs_pOCIj4PwXCodFh-49" value="Monitoring thread" style="text;html=1;align=center;verticalAlign=middle;whiteSpace=wrap;rounded=0;" vertex="1" parent="1">
          <mxGeometry x="130" y="310" width="105" height="30" as="geometry" />
        </mxCell>
        <mxCell id="0yZVs_pOCIj4PwXCodFh-58" value="Input thread" style="text;html=1;align=center;verticalAlign=middle;whiteSpace=wrap;rounded=0;" vertex="1" parent="1">
          <mxGeometry x="480" y="310" width="105" height="30" as="geometry" />
        </mxCell>
        <mxCell id="0yZVs_pOCIj4PwXCodFh-65" style="edgeStyle=orthogonalEdgeStyle;rounded=0;orthogonalLoop=1;jettySize=auto;html=1;exitX=0.5;exitY=1;exitDx=0;exitDy=0;entryX=0.5;entryY=0;entryDx=0;entryDy=0;" edge="1" parent="1" source="0yZVs_pOCIj4PwXCodFh-61" target="0yZVs_pOCIj4PwXCodFh-64">
          <mxGeometry relative="1" as="geometry" />
        </mxCell>
        <mxCell id="0yZVs_pOCIj4PwXCodFh-61" value="Enters receive loop" style="rounded=0;whiteSpace=wrap;html=1;" vertex="1" parent="1">
          <mxGeometry x="354" y="340" width="120" height="60" as="geometry" />
        </mxCell>
        <mxCell id="0yZVs_pOCIj4PwXCodFh-62" value="Kills thread and sets exit flag" style="rounded=0;whiteSpace=wrap;html=1;" vertex="1" parent="1">
          <mxGeometry x="490" y="470" width="110" height="60" as="geometry" />
        </mxCell>
        <mxCell id="0yZVs_pOCIj4PwXCodFh-66" style="edgeStyle=orthogonalEdgeStyle;rounded=0;orthogonalLoop=1;jettySize=auto;html=1;exitX=0.5;exitY=1;exitDx=0;exitDy=0;entryX=0.5;entryY=0;entryDx=0;entryDy=0;" edge="1" parent="1" source="0yZVs_pOCIj4PwXCodFh-64" target="0yZVs_pOCIj4PwXCodFh-21">
          <mxGeometry relative="1" as="geometry" />
        </mxCell>
        <mxCell id="0yZVs_pOCIj4PwXCodFh-68" style="edgeStyle=orthogonalEdgeStyle;rounded=0;orthogonalLoop=1;jettySize=auto;html=1;exitX=0;exitY=0.5;exitDx=0;exitDy=0;entryX=0.5;entryY=0;entryDx=0;entryDy=0;" edge="1" parent="1" source="0yZVs_pOCIj4PwXCodFh-64" target="0yZVs_pOCIj4PwXCodFh-61">
          <mxGeometry relative="1" as="geometry">
            <Array as="points">
              <mxPoint x="330" y="450" />
              <mxPoint x="330" y="330" />
              <mxPoint x="414" y="330" />
            </Array>
          </mxGeometry>
        </mxCell>
        <mxCell id="0yZVs_pOCIj4PwXCodFh-64" value="exit flag set?" style="rhombus;whiteSpace=wrap;html=1;" vertex="1" parent="1">
          <mxGeometry x="374" y="410" width="80" height="80" as="geometry" />
        </mxCell>
        <mxCell id="0yZVs_pOCIj4PwXCodFh-67" value="Yes" style="text;html=1;align=center;verticalAlign=middle;whiteSpace=wrap;rounded=0;" vertex="1" parent="1">
          <mxGeometry x="414" y="480" width="60" height="30" as="geometry" />
        </mxCell>
        <mxCell id="0yZVs_pOCIj4PwXCodFh-69" value="No" style="text;html=1;align=center;verticalAlign=middle;whiteSpace=wrap;rounded=0;" vertex="1" parent="1">
          <mxGeometry x="330" y="430" width="60" height="30" as="geometry" />
        </mxCell>
      </root>
    </mxGraphModel>
  </diagram>
</mxfile>
